<?xml version="1.0" encoding="utf-8"?>
<!-- Generator: Adobe Illustrator 22.1.0, SVG Export Plug-In . SVG Version: 6.00 Build 0)  -->
<svg version="1.1" id="Layer_1" xmlns="http://www.w3.org/2000/svg" xmlns:xlink="http://www.w3.org/1999/xlink" x="0px" y="0px"
	 viewBox="0 0 187 41" style="enable-background:new 0 0 187 41;" xml:space="preserve">
<g>
	<path d="M52.1,20.7h1v14.4h-1V20.7z M52.1,14.8h1v2h-1V14.8z M61.4,20.6c-2,0-3.7,1.1-4.6,2.9v-2.8h-1V21c0.1,1.5,0.1,3,0.1,4v10.2
		h1v-7.3c0-0.7,0-1.4,0.1-2c0.6-2.7,2.2-4.1,4.5-4.1c3,0,3.7,2.1,3.7,5.1v8.4h1.1v-9.1C66.2,22.4,64.5,20.6,61.4,20.6z M78,20.7
		l-5.1,12.8l-5.2-12.8h-1l5.9,14.5h0.7l6-14.5L78,20.7z M84.8,20.5c-4.5,0-6.1,4.1-6.1,7.6c0,4.6,2.3,7.2,6,7.2
		c2.8,0,4.6-1.4,5.2-4.5l0.1-0.3h-1.1l-0.1,0.2c-0.8,2.6-2,3.6-4.3,3.6c-3.6,0-4.9-3.2-4.9-6.1v-0.2H90v-1
		C90.1,23.9,88.7,20.5,84.8,20.5L84.8,20.5z M89,27.1h-9.3c0.3-2.2,1.3-5.5,5-5.5c3.5,0,4.2,3.3,4.3,5.3C89,26.9,89,27.1,89,27.1z
		 M96.1,27.4c-1.9-0.6-3.8-1-3.8-3.1c0-2.1,1.9-2.9,3.5-2.9c1.5,0,3.3,0.6,3.3,3v0.3h1v-0.2c0-2.7-1.6-4.1-4.4-4.1
		c-2.2,0-4.6,1.2-4.6,3.9c0,2.8,2.4,3.4,4.6,4c1.9,0.6,3.6,1,3.6,2.8c0,3.1-2.9,3.2-3.8,3.2c-2.4,0-3.6-1.1-3.6-3.3v-0.2h-1v0.2
		c0,2.8,1.7,4.4,4.7,4.4c2.9,0,4.8-1.7,4.8-4.3C100.4,28.6,98.1,27.9,96.1,27.4z M106.7,34.1c-0.2,0-0.5,0.1-0.8,0.1
		c-1.4,0-1.7-0.8-1.7-2.3V21.7h3v-1h-3v-3.6l-1.1,0.7v3.1h-2.8v1h2.8v10.6c0,2.4,1.3,2.9,2.5,2.9c0.5,0,0.8,0,1.5-0.1h0.2v-1h-0.3
		C107,34.1,106.9,34.1,106.7,34.1L106.7,34.1z M108.7,20.7h1v14.4h-1V20.7z M108.7,14.8h1v2h-1V14.8z M126.6,20.6
		c-2-0.1-3.9,1.2-4.6,3.1c-0.5-1.9-2.3-3.2-4.3-3.1c-1.8,0-3.5,1-4.4,2.7v-2.6h-1v14.5h1v-7.7c0-0.7,0-1.4,0.2-2.2
		c0.3-1,1.2-3.6,4.1-3.6c3.1,0,3.6,3.1,3.6,4.8v8.7h1.1v-8c0-0.9,0.1-1.6,0.2-2.2c0.4-1.5,1.3-3.3,4-3.3c2.5,0,3.7,1.5,3.7,4.6v9
		h1.1v-8.3c0-1.1,0-2.6-0.6-3.9C130,21.5,128.6,20.6,126.6,20.6L126.6,20.6z M139.2,20.5c-4.5,0-6.1,4.1-6.1,7.6
		c0,4.6,2.3,7.2,6,7.2c2.8,0,4.6-1.4,5.2-4.5l0.1-0.3h-1v0.2c-0.8,2.6-2,3.6-4.3,3.6c-3.6,0-4.9-3.2-4.9-6.1v-0.2h10.3v-1
		C144.5,23.9,143.1,20.5,139.2,20.5L139.2,20.5z M143.4,27.1h-9.3c0.3-2.2,1.2-5.5,5-5.5c3.5,0,4.2,3.3,4.3,5.3V27.1z M151.9,20.6
		c-2,0-3.7,1.1-4.6,2.9v-2.8h-1V21c0.1,1.5,0.1,3,0.1,4v10.2h1v-7.3c0-0.7,0-1.4,0.1-2c0.6-2.7,2.2-4.1,4.4-4.1c3,0,3.7,2.1,3.7,5.1
		v8.4h1.1v-9.1C156.6,22.4,155,20.6,151.9,20.6L151.9,20.6z M163.3,34.1c-0.2,0-0.5,0.1-0.8,0.1c-1.4,0-1.7-0.8-1.7-2.3V21.7h3v-1
		h-3v-3.6l-1,0.7v3.1h-2.9v1h2.9v10.6c0,2.4,1.3,2.9,2.5,2.9c0.5,0,0.9,0,1.5-0.1h0.2v-1h-0.3C163.6,34.1,163.5,34.1,163.3,34.1
		L163.3,34.1z"/>
	<path d="M169.8,20.5c-4.6,0-6.3,3.9-6.3,7.3c0,3.5,1.6,7.6,6.3,7.6c4.1,0,6.2-3.8,6.2-7.6C176.1,23.4,173.7,20.5,169.8,20.5z
		 M169.8,34.4c-3.6,0-5.2-3.3-5.2-6.6c0-3.1,1.6-6.3,5.2-6.3c3.8,0,5.1,3.4,5.1,6.3C175,31,173.4,34.4,169.8,34.4z M182,27.4
		c-1.9-0.6-3.8-1-3.8-3.1c0-2.1,1.9-2.9,3.5-2.9c1.5,0,3.3,0.6,3.3,3v0.3h1v-0.2c0-2.7-1.6-4.1-4.4-4.1c-2.2,0-4.6,1.2-4.6,3.9
		c0,2.8,2.4,3.4,4.6,4c1.9,0.6,3.6,1,3.6,2.8c0,3.1-2.9,3.2-3.8,3.2c-2.4,0-3.6-1.1-3.6-3.3v-0.2h-1.1v0.2c0,2.8,1.7,4.4,4.6,4.4
		c2.9,0,4.9-1.7,4.9-4.3C186.3,28.6,184,27.9,182,27.4L182,27.4z M38,35.2c-1.1,0-2.2-0.3-3.2-0.8v6.4h5.4c2.8,0,4.9-2.2,4.9-5v-4.8
		C43.6,33.6,40.9,35.2,38,35.2z M29.1,31.9V20c-1.6,2.2-3.8,5.1-4.4,5.9C25.3,26.7,27.4,29.6,29.1,31.9z"/>
	<path d="M40.2,0H4.9C2.2,0,0,2.2,0,4.9c0,0,0,0.1,0,0.1v30.9c0,2.7,2.2,4.9,4.9,4.9c0,0,0,0,0.1,0h24.2v-5.9h-4.5
		c0,0-2.2-3-3.1-4.4c-1.1,1.5-2.1,2.9-3.1,4.4h-6.6c0,0,5.7-7.7,6.6-9c-0.9-1.2-6.2-8.5-6.2-8.5h6.6c0,0,1.9,2.6,2.9,3.9
		c1-1.3,2.9-3.9,2.9-3.9h7.8c0,0,0.6,1,0.8,1.5c1.4-1.1,3.2-1.8,5-1.8c2.9,0,5.6,1.6,7.1,4.1V4.9C45.1,2.2,42.9,0,40.2,0z"/>
	<path d="M40.7,26.2c0-2-1.3-3.6-2.9-3.6c-1.7,0-3,1.6-3,3.6s1.3,3.6,3,3.6C39.4,29.8,40.7,28.2,40.7,26.2z"/>
</g>
</svg>
